<?xml version="1.0" encoding="UTF-8" standalone="no"?><!DOCTYPE svg PUBLIC "-//W3C//DTD SVG 1.1//EN" "http://www.w3.org/Graphics/SVG/1.1/DTD/svg11.dtd"><svg width="100%" height="100%" viewBox="0 0 5689 5689" version="1.1" xmlns="http://www.w3.org/2000/svg" xmlns:xlink="http://www.w3.org/1999/xlink" xml:space="preserve" xmlns:serif="http://www.serif.com/" style="fill-rule:evenodd;clip-rule:evenodd;stroke-linejoin:round;stroke-miterlimit:2;"><circle cx="2844.444" cy="2844.444" r="2666.667" style="fill:#3a006a;stroke:#8c31ec;stroke-width:5.56px;"/><g><clipPath id="_clip1"><circle cx="2844.444" cy="2844.444" r="2666.667"/></clipPath><g clip-path="url(#_clip1)"><g><clipPath id="_clip2"><path d="M-2711.706,2272.983l7928.328,-801.028l801.028,7928.322l-7928.322,801.033l-801.033,-7928.328Z"/></clipPath><g clip-path="url(#_clip2)"><path d="M4856.8,2776.9c-320.233,-40.45 -999.256,-118.044 -2065.772,-10.289c-94.056,9.506 -704.383,71.167 -704.383,71.167l-133.111,-136.128c-305.478,-312.439 -694.728,-529.406 -1121.317,-624.183l-308.333,-68.806l80.661,810.45c20.361,201.522 -95.628,390.6 -282.806,467.489c-318.35,130.872 -623.706,298.978 -819.383,413.728c-1005.728,590.211 -1619.05,1425.444 -1536.133,2246.15c89.217,883.017 911.1,1498.6 2138.894,1790.311c-19.356,147.217 -22.572,298.683 -6.989,452.883c75.761,749.878 563.839,1358.483 1216.711,1623.15c-193.017,-338.289 -319.933,-721.206 -361.611,-1133.694c-108.556,-1074.444 389.194,-2070.417 1216.133,-2647.478c-103.339,-6.206 -208.322,-4.233 -314.583,6.506c-755.978,76.378 -1367.528,571.822 -1629.256,1232.75c-264.556,-82.678 -603.678,-284.378 -636.117,-605.472c-30.572,-302.606 198.472,-503.267 437.2,-560.394c1307.561,-312.878 1802.828,-418.422 2899.333,-797.233c672.672,-232.372 1158.8,-503.867 1477.917,-840.839c26.522,-30.428 14.556,-78.906 -23.561,-92.917c-261.956,-95.672 -926.539,-48.583 -1286.933,-13.394c-0.311,0.033 -0.65,-0.244 -0.961,-0.217c-114.278,10.606 -115.444,-92.583 -57.394,-137.617c197.144,-146.067 453.117,-259.528 739.05,-341.789l132.039,192.711l228.561,-268.628l133.233,305.156l230.233,-346.822l182.544,350.45c-0.033,-0.311 0.278,-0.339 0.278,-0.339l204.3,-392.633c110.506,-267.806 157.428,-511.572 177.567,-678.611c14.883,-130.433 -75.744,-248.989 -206.022,-265.422l0.011,0.006Zm-1301.456,456.583l-2.139,0.217l-176.278,13.806c-65.467,5.394 -122.806,-43.128 -128.133,-108.256c-5.3,-64.539 42.011,-121.444 106.428,-127.95l2.139,-0.217l176.278,-13.806c65.161,-5.361 122.494,43.156 127.856,108.6c5.578,64.2 -41.733,121.1 -106.15,127.611l-0,-0.006Z" style="fill:#9236f3;fill-rule:nonzero;stroke:#000;stroke-width:194.44px;"/></g></g><path d="M3688.323,2948.324c43.377,35.58 72.79,88.062 77.571,148.348c9.328,117.6 -78.578,220.656 -196.178,229.983l-194.156,15.4c-117.6,9.328 -220.656,-78.578 -229.983,-196.178c-9.328,-117.6 78.578,-220.656 196.178,-229.983l65.067,-5.161l1109.5,-2613.167l765.622,609.378l-1593.621,2041.379Z" style="fill:#fc0033;stroke:#000;stroke-width:55.56px;"/></g></g><circle cx="2844.444" cy="2844.444" r="2666.667" style="fill:none;stroke:#000;stroke-width:277.78px;stroke-linecap:round;stroke-miterlimit:1.5;"/></svg>