<?xml version="1.0" encoding="UTF-8" standalone="no"?><!DOCTYPE svg PUBLIC "-//W3C//DTD SVG 1.1//EN" "http://www.w3.org/Graphics/SVG/1.1/DTD/svg11.dtd"><svg width="100%" height="100%" viewBox="0 0 31606 31606" version="1.1" xmlns="http://www.w3.org/2000/svg" xmlns:xlink="http://www.w3.org/1999/xlink" xml:space="preserve" xmlns:serif="http://www.serif.com/" style="fill-rule:evenodd;clip-rule:evenodd;stroke-linejoin:round;stroke-miterlimit:2;"><circle cx="15802.467" cy="15802.467" r="14814.817" style="fill:#29004d;"/><g><path d="M22266.13,15075.907c2182.282,44.775 3745.678,228.738 4716.066,351.312l-0.035,-0.019c723.767,91.294 1227.25,749.939 1144.567,1474.567c-111.883,927.994 -372.561,2282.25 -986.483,3770.061l-1135,2181.294c0,0 -1.728,0.156 -1.544,1.883l-1014.133,-1946.944l-1279.072,1926.789l-740.183,-1695.311l-1269.783,1492.378l-733.55,-1070.617c-1588.517,457.006 -3010.589,1087.344 -4105.833,1898.828c-322.5,250.189 -316.022,823.461 318.856,764.539c1.728,-0.15 3.611,1.389 5.339,1.206c2002.189,-195.494 5694.317,-457.1 7149.628,74.411c211.761,77.839 278.239,347.161 130.894,516.206c-1772.872,1872.067 -4473.583,3380.372 -8210.65,4671.328c-1019.734,352.289 -1945.87,662.036 -2815.242,941.767c-6175.594,-991.417 -11080.645,-5805.482 -12207.84,-11934.881c183.887,-80.504 369.199,-159.304 555.311,-235.814c1039.878,-427.161 1684.261,-1477.594 1571.144,-2597.161l-448.117,-4502.5l1712.961,382.256c2369.939,526.539 4532.439,1731.911 6229.539,3467.683l739.506,756.267c0,0 3390.706,-342.561 3913.239,-395.372c110.718,-11.186 220.685,-22.013 329.901,-32.489c-21.639,151.869 -32.835,307.085 -32.835,464.894c0,1805.989 1466.234,3272.222 3272.222,3272.222c1805.989,0 3272.222,-1466.234 3272.222,-3272.222c0,-249.672 -28.023,-492.851 -81.092,-726.56Z" style="fill:#c395ff;stroke:#000;stroke-width:944.44px;"/><circle cx="19080.556" cy="15802.467" r="2458.333" style="fill:#f00;"/><path d="M15802.778,12821.911c2153.352,-1883.321 4336.227,-2031.317 6556.178,0" style="fill:none;stroke:#f00;stroke-width:1333.33px;stroke-linecap:round;stroke-miterlimit:1.5;"/><path d="M14241.356,10570.339c3178.835,-2766.393 6401.251,-2983.784 9678.4,0" style="fill:none;stroke:#f00;stroke-width:1444.44px;stroke-linecap:round;stroke-miterlimit:1.5;"/><path d="M12469.133,8135.475c4342.995,-3646.197 8745.531,-3932.725 13222.844,0" style="fill:none;stroke:#f00;stroke-width:1666.67px;stroke-linecap:round;stroke-miterlimit:1.5;"/></g><circle cx="15802.467" cy="15802.467" r="14814.817" style="fill:none;stroke:#000;stroke-width:1543.22px;stroke-linecap:round;stroke-miterlimit:1.5;"/></svg>