<?xml version="1.0" encoding="UTF-8" standalone="no"?><!DOCTYPE svg PUBLIC "-//W3C//DTD SVG 1.1//EN" "http://www.w3.org/Graphics/SVG/1.1/DTD/svg11.dtd"><svg width="100%" height="100%" viewBox="0 0 1024 1024" version="1.1" xmlns="http://www.w3.org/2000/svg" xmlns:xlink="http://www.w3.org/1999/xlink" xml:space="preserve" xmlns:serif="http://www.serif.com/" style="fill-rule:evenodd;clip-rule:evenodd;stroke-linejoin:round;stroke-miterlimit:2;"><circle cx="512" cy="512" r="480" style="fill:#300a71;"/><clipPath id="_clip1"><circle cx="512" cy="512" r="480"/></clipPath><g clip-path="url(#_clip1)"><clipPath id="_clip2"><polygon points="-488.107,409.137 938.992,264.952 1083.177,1692.05 -343.921,1836.236 -488.107,409.137 "/></clipPath><g clip-path="url(#_clip2)"><path d="M874.224,499.842c-57.642,-7.281 -179.866,-21.248 -371.839,-1.852c-16.93,1.711 -126.789,12.81 -126.789,12.81l-23.96,-24.503c-54.986,-56.239 -125.051,-95.293 -201.837,-112.353l-55.5,-12.385l14.519,145.881c3.665,36.274 -17.213,70.308 -50.905,84.148c-57.303,23.557 -112.267,53.816 -147.489,74.471c-181.031,106.238 -291.429,256.58 -276.504,404.307c16.059,158.943 163.998,269.748 385.001,322.256c-3.484,26.499 -4.063,53.763 -1.258,81.519c13.637,134.978 101.491,244.527 219.008,292.167c-34.743,-60.892 -57.588,-129.817 -65.09,-204.065c-19.54,-193.4 70.055,-372.675 218.904,-476.546c-18.601,-1.117 -37.498,-0.762 -56.625,1.171c-136.076,13.748 -246.155,102.928 -293.266,221.895c-47.62,-14.882 -108.662,-51.188 -114.501,-108.985c-5.503,-54.469 35.725,-90.588 78.696,-100.871c235.361,-56.318 324.509,-75.316 521.88,-143.502c121.081,-41.827 208.584,-90.696 266.025,-151.351c4.774,-5.477 2.62,-14.203 -4.241,-16.725c-47.152,-17.221 -166.777,-8.745 -231.648,-2.411c-0.056,0.006 -0.117,-0.044 -0.173,-0.039c-20.57,1.909 -20.78,-16.665 -10.331,-24.771c35.486,-26.292 81.561,-46.715 133.029,-61.522l23.767,34.688l41.141,-48.353l23.982,54.928l41.442,-62.428l32.858,63.081c-0.006,-0.056 0.05,-0.061 0.05,-0.061l36.774,-70.674c19.891,-48.205 28.337,-92.083 31.962,-122.15c2.679,-23.478 -13.634,-44.818 -37.084,-47.776Zm-234.262,82.185l-0.385,0.039l-31.73,2.485c-11.784,0.971 -22.105,-7.763 -23.064,-19.486c-0.954,-11.617 7.562,-21.86 19.157,-23.031l0.385,-0.039l31.73,-2.485c11.729,-0.965 22.049,7.768 23.014,19.548c1.004,11.556 -7.512,21.798 -19.107,22.97Z" style="fill:#8c31ec;fill-rule:nonzero;stroke:#bd89f4;stroke-width:26.89px;"/></g><path d="M599.188,557l213.75,-503.438l137.812,109.688l-310.312,397.5l-41.25,-3.75" style="fill:#fc00a8;"/><path d="M677.861,557.401c1.679,21.168 -14.144,39.718 -35.312,41.397l-34.948,2.772c-21.168,1.679 -39.718,-14.144 -41.397,-35.312c-1.679,-21.168 14.144,-39.718 35.312,-41.397l34.948,-2.772c21.168,-1.679 39.718,14.144 41.397,35.312Z" style="fill:#fc00a8;"/></g><circle cx="512" cy="512" r="480" style="fill:none;stroke:#000;stroke-width:50px;stroke-linecap:round;stroke-miterlimit:1.5;"/></svg>